<mxfile host="app.diagrams.net" agent="Mozilla/5.0 (Macintosh; Intel Mac OS X 10_15_7) AppleWebKit/537.36 (KHTML, like Gecko) Chrome/131.0.0.0 Safari/537.36" version="25.0.3">
  <diagram name="Page-1" id="DcJ7ozQtyh4piiJlDfk5">
    <mxGraphModel dx="1673" dy="544" grid="1" gridSize="10" guides="1" tooltips="1" connect="1" arrows="1" fold="1" page="1" pageScale="1" pageWidth="850" pageHeight="1100" math="0" shadow="0">
      <root>
        <mxCell id="0" />
        <mxCell id="1" parent="0" />
        <mxCell id="aGZQhhcOPH3hdLJARk8L-2" style="edgeStyle=orthogonalEdgeStyle;rounded=0;orthogonalLoop=1;jettySize=auto;html=1;" edge="1" parent="1">
          <mxGeometry relative="1" as="geometry">
            <mxPoint x="160" y="439.65999999999997" as="targetPoint" />
            <mxPoint x="100" y="439.65999999999997" as="sourcePoint" />
          </mxGeometry>
        </mxCell>
        <mxCell id="aGZQhhcOPH3hdLJARk8L-3" value="ax+b=0" style="text;html=1;align=center;verticalAlign=middle;resizable=0;points=[];autosize=1;strokeColor=none;fillColor=none;" vertex="1" parent="1">
          <mxGeometry x="100" y="380" width="60" height="30" as="geometry" />
        </mxCell>
        <mxCell id="aGZQhhcOPH3hdLJARk8L-5" value="start" style="strokeWidth=2;html=1;shape=mxgraph.flowchart.start_1;whiteSpace=wrap;" vertex="1" parent="1">
          <mxGeometry y="410" width="100" height="60" as="geometry" />
        </mxCell>
        <mxCell id="aGZQhhcOPH3hdLJARk8L-35" style="edgeStyle=orthogonalEdgeStyle;rounded=0;orthogonalLoop=1;jettySize=auto;html=1;" edge="1" parent="1" source="aGZQhhcOPH3hdLJARk8L-6">
          <mxGeometry relative="1" as="geometry">
            <mxPoint x="320" y="440" as="targetPoint" />
            <Array as="points">
              <mxPoint x="310" y="440" />
            </Array>
          </mxGeometry>
        </mxCell>
        <mxCell id="aGZQhhcOPH3hdLJARk8L-6" value="nhap a, b" style="shape=parallelogram;html=1;strokeWidth=2;perimeter=parallelogramPerimeter;whiteSpace=wrap;rounded=1;arcSize=12;size=0.23;" vertex="1" parent="1">
          <mxGeometry x="150" y="410" width="100" height="60" as="geometry" />
        </mxCell>
        <mxCell id="aGZQhhcOPH3hdLJARk8L-29" value="xt" style="text;html=1;align=center;verticalAlign=middle;resizable=0;points=[];autosize=1;strokeColor=none;fillColor=none;" vertex="1" parent="1">
          <mxGeometry x="-500" y="388" width="30" height="30" as="geometry" />
        </mxCell>
        <mxCell id="aGZQhhcOPH3hdLJARk8L-39" style="edgeStyle=orthogonalEdgeStyle;rounded=0;orthogonalLoop=1;jettySize=auto;html=1;" edge="1" parent="1" source="aGZQhhcOPH3hdLJARk8L-36">
          <mxGeometry relative="1" as="geometry">
            <mxPoint x="370" y="560" as="targetPoint" />
          </mxGeometry>
        </mxCell>
        <mxCell id="aGZQhhcOPH3hdLJARk8L-36" value="a == 0" style="strokeWidth=2;html=1;shape=mxgraph.flowchart.decision;whiteSpace=wrap;" vertex="1" parent="1">
          <mxGeometry x="320" y="390" width="100" height="100" as="geometry" />
        </mxCell>
        <mxCell id="aGZQhhcOPH3hdLJARk8L-40" value="false" style="text;html=1;align=center;verticalAlign=middle;resizable=0;points=[];autosize=1;strokeColor=none;fillColor=none;" vertex="1" parent="1">
          <mxGeometry x="365" y="478" width="50" height="30" as="geometry" />
        </mxCell>
        <mxCell id="aGZQhhcOPH3hdLJARk8L-41" value="print(&quot;pt co vo so nghiem&quot;)" style="strokeWidth=2;html=1;shape=mxgraph.flowchart.display;whiteSpace=wrap;rotation=0;" vertex="1" parent="1">
          <mxGeometry x="480" y="220" width="160" height="40" as="geometry" />
        </mxCell>
        <mxCell id="aGZQhhcOPH3hdLJARk8L-42" value="print(&quot;pt vo nghiem&quot;)" style="strokeWidth=2;html=1;shape=mxgraph.flowchart.display;whiteSpace=wrap;rotation=0;" vertex="1" parent="1">
          <mxGeometry x="480" y="300" width="160" height="40" as="geometry" />
        </mxCell>
        <mxCell id="aGZQhhcOPH3hdLJARk8L-46" value="" style="endArrow=classic;html=1;rounded=0;exitX=0.5;exitY=0;exitDx=0;exitDy=0;exitPerimeter=0;entryX=0;entryY=0.5;entryDx=0;entryDy=0;entryPerimeter=0;" edge="1" parent="1" source="aGZQhhcOPH3hdLJARk8L-36" target="aGZQhhcOPH3hdLJARk8L-41">
          <mxGeometry width="50" height="50" relative="1" as="geometry">
            <mxPoint x="330" y="390" as="sourcePoint" />
            <mxPoint x="410" y="280" as="targetPoint" />
            <Array as="points">
              <mxPoint x="370" y="280" />
              <mxPoint x="410" y="280" />
              <mxPoint x="410" y="240" />
            </Array>
          </mxGeometry>
        </mxCell>
        <mxCell id="aGZQhhcOPH3hdLJARk8L-48" value="" style="endArrow=classic;html=1;rounded=0;entryX=0;entryY=0.5;entryDx=0;entryDy=0;entryPerimeter=0;" edge="1" parent="1" target="aGZQhhcOPH3hdLJARk8L-42">
          <mxGeometry width="50" height="50" relative="1" as="geometry">
            <mxPoint x="410" y="280" as="sourcePoint" />
            <mxPoint x="430" y="270" as="targetPoint" />
            <Array as="points">
              <mxPoint x="410" y="320" />
            </Array>
          </mxGeometry>
        </mxCell>
        <mxCell id="aGZQhhcOPH3hdLJARk8L-49" value="b == 0" style="text;html=1;align=center;verticalAlign=middle;resizable=0;points=[];autosize=1;strokeColor=none;fillColor=none;" vertex="1" parent="1">
          <mxGeometry x="360" y="230" width="60" height="30" as="geometry" />
        </mxCell>
        <mxCell id="aGZQhhcOPH3hdLJARk8L-50" value="b != 0" style="text;html=1;align=center;verticalAlign=middle;resizable=0;points=[];autosize=1;strokeColor=none;fillColor=none;" vertex="1" parent="1">
          <mxGeometry x="365" y="300" width="50" height="30" as="geometry" />
        </mxCell>
        <mxCell id="aGZQhhcOPH3hdLJARk8L-51" value="true" style="text;html=1;align=center;verticalAlign=middle;resizable=0;points=[];autosize=1;strokeColor=none;fillColor=none;" vertex="1" parent="1">
          <mxGeometry x="370" y="368" width="40" height="30" as="geometry" />
        </mxCell>
        <mxCell id="aGZQhhcOPH3hdLJARk8L-53" style="edgeStyle=orthogonalEdgeStyle;rounded=0;orthogonalLoop=1;jettySize=auto;html=1;entryX=0.5;entryY=1;entryDx=0;entryDy=0;entryPerimeter=0;" edge="1" parent="1" source="aGZQhhcOPH3hdLJARk8L-52" target="aGZQhhcOPH3hdLJARk8L-54">
          <mxGeometry relative="1" as="geometry">
            <mxPoint x="720" y="610" as="targetPoint" />
          </mxGeometry>
        </mxCell>
        <mxCell id="aGZQhhcOPH3hdLJARk8L-52" value="x = -b/a" style="rounded=1;whiteSpace=wrap;html=1;absoluteArcSize=1;arcSize=14;strokeWidth=2;" vertex="1" parent="1">
          <mxGeometry x="325" y="560" width="100" height="100" as="geometry" />
        </mxCell>
        <mxCell id="aGZQhhcOPH3hdLJARk8L-54" value="end" style="strokeWidth=2;html=1;shape=mxgraph.flowchart.start_1;whiteSpace=wrap;" vertex="1" parent="1">
          <mxGeometry x="670" y="410" width="100" height="60" as="geometry" />
        </mxCell>
        <mxCell id="aGZQhhcOPH3hdLJARk8L-55" style="edgeStyle=orthogonalEdgeStyle;rounded=0;orthogonalLoop=1;jettySize=auto;html=1;exitX=1;exitY=0.5;exitDx=0;exitDy=0;exitPerimeter=0;entryX=0.5;entryY=0;entryDx=0;entryDy=0;entryPerimeter=0;" edge="1" parent="1" source="aGZQhhcOPH3hdLJARk8L-42" target="aGZQhhcOPH3hdLJARk8L-54">
          <mxGeometry relative="1" as="geometry" />
        </mxCell>
        <mxCell id="aGZQhhcOPH3hdLJARk8L-56" style="edgeStyle=orthogonalEdgeStyle;rounded=0;orthogonalLoop=1;jettySize=auto;html=1;entryX=0.5;entryY=0;entryDx=0;entryDy=0;entryPerimeter=0;" edge="1" parent="1" source="aGZQhhcOPH3hdLJARk8L-41" target="aGZQhhcOPH3hdLJARk8L-54">
          <mxGeometry relative="1" as="geometry" />
        </mxCell>
      </root>
    </mxGraphModel>
  </diagram>
</mxfile>
